<svg width="30" height="30" viewBox="0 0 30 30" fill="none" xmlns="http://www.w3.org/2000/svg">
<path d="M25.5862 21.9516L23.1352 17.0558C23.1088 17.0026 23.0947 16.9443 23.0939 16.885L23.0877 11.465C23.086 8.40586 21.0129 5.83155 18.2013 5.06309V5.05987C18.1946 4.22044 17.8568 3.41759 17.2613 2.82592C16.6658 2.23425 15.8608 1.90161 15.0214 1.90033C14.1819 1.89906 13.3759 2.22926 12.7786 2.81912C12.1813 3.40898 11.8411 4.2108 11.8319 5.0502C8.9886 5.80606 6.89182 8.39942 6.89475 11.48L6.9012 16.8999C6.90187 16.9594 6.88778 17.018 6.86018 17.0707L4.41214 21.9609C3.69759 23.3906 4.73792 25.0761 6.33811 25.0731L23.6663 25.0603C25.2636 25.0635 26.3031 23.381 25.5862 21.9516ZM12.1289 25.9901C12.0574 25.9908 11.9874 26.0116 11.9272 26.0502C11.8669 26.0888 11.8187 26.1435 11.7881 26.2083C11.7575 26.273 11.7458 26.345 11.7543 26.416C11.7627 26.4871 11.791 26.5543 11.836 26.6101C12.215 27.0831 12.6955 27.4648 13.242 27.727C13.7885 27.9892 14.3869 28.1252 14.993 28.1249C15.5992 28.1246 16.1975 27.988 16.7437 27.7252C17.2899 27.4625 17.77 27.0802 18.1486 26.6068C18.3478 26.3569 18.1738 25.9869 17.8556 25.9916L12.1289 25.9901Z" fill="#8D92F8"/>
<path d="M17.8535 25.9901H12.1289C12.0573 25.9908 11.9874 26.0116 11.9271 26.0502C11.8668 26.0888 11.8186 26.1435 11.788 26.2083C11.7574 26.273 11.7457 26.345 11.7542 26.416C11.7627 26.4871 11.791 26.5544 11.8359 26.6101C12.2149 27.0831 12.6954 27.4648 13.2419 27.727C13.7884 27.9892 14.3868 28.1252 14.993 28.1249C15.5991 28.1246 16.1974 27.988 16.7436 27.7252C17.2898 27.4625 17.77 27.0802 18.1485 26.6068C18.3468 26.3569 18.1728 25.9863 17.8535 25.9901ZM7.50904 20.9895C7.50732 22.3822 7.75222 23.7643 8.23238 25.0717L23.666 25.0603C25.2632 25.0635 26.3027 23.381 25.5858 21.9516L23.1351 17.0558C23.1088 17.0026 23.0947 16.9443 23.0938 16.885L23.0877 11.465C23.0874 10.866 23.0062 10.2696 22.8462 9.69229C21.7095 9.33996 20.526 9.16119 19.3359 9.16202C12.8045 9.16202 7.50904 14.4574 7.50904 20.9895Z" fill="#8486F8"/>
<path d="M25.5862 21.9516L23.1352 17.0558C23.1089 17.0026 23.0948 16.9443 23.0939 16.885L23.0898 13.246C16.6038 13.2984 11.3617 18.5713 11.3596 25.0693L23.6664 25.0603C25.2636 25.0635 26.3031 23.381 25.5862 21.9516ZM17.8536 25.9901H12.129C12.0574 25.9908 11.9875 26.0116 11.9272 26.0502C11.8669 26.0888 11.8187 26.1435 11.7881 26.2083C11.7575 26.273 11.7458 26.345 11.7543 26.416C11.7627 26.4871 11.7911 26.5544 11.836 26.6101C12.215 27.0831 12.6955 27.4648 13.242 27.727C13.7885 27.9892 14.3869 28.1252 14.9931 28.1249C15.5992 28.1246 16.1975 27.988 16.7437 27.7252C17.2899 27.4625 17.77 27.0802 18.1486 26.6068C18.3469 26.3569 18.1729 25.9863 17.8536 25.9901Z" fill="#757BF2"/>
<path d="M16.5454 25.0655L23.6663 25.0603C25.2636 25.0635 26.3031 23.381 25.5862 21.9516L23.3321 17.4492C21.7054 18.1337 20.252 19.1727 19.0779 20.4903C17.9038 21.8079 17.0386 23.371 16.5454 25.0655ZM17.8535 25.9901H16.3184C16.1859 26.6436 16.1087 27.3071 16.0875 27.9735C16.9 27.7438 17.6204 27.266 18.148 26.6068C18.3469 26.3569 18.1729 25.9863 17.8535 25.9901Z" fill="#6C6CEA"/>
<path d="M13.63 6.65039C13.8518 6.98145 12.6855 7.39248 11.455 8.21221C10.2246 9.03193 9.39663 9.94981 9.17485 9.61699C8.95307 9.28418 9.63393 8.14453 10.8641 7.32422C12.0943 6.50391 13.4085 6.31611 13.63 6.65039Z" fill="white"/>
</svg>
